<svg width="40" height="40" viewBox="0 0 40 40" fill="none" xmlns="http://www.w3.org/2000/svg">
<g clip-path="url(#clip0_189_39493)">
<path d="M40 0H0V40H40V0Z" fill="#131313"/>
<path d="M30 15H23V13H30V15ZM31.726 25C31.284 26.297 29.697 28 26.625 28C23.551 28 21.061 26.271 21.061 22.325C21.061 18.415 23.386 16.405 26.527 16.405C29.609 16.405 31.491 18.187 31.902 20.831C31.98 21.337 32.011 22.019 31.997 22.971H23.97C24.1 26.182 27.453 26.283 28.558 25H31.726ZM24.04 21H29.005C28.9 19.453 27.869 18.781 26.528 18.781C25.062 18.781 24.251 19.549 24.04 21ZM14.466 27.988H8V13.021H14.953C20.429 13.102 20.533 18.465 17.673 19.927C21.134 21.187 21.25 27.988 14.466 27.988ZM11 19H14.584C17.092 19 17.49 16 14.272 16H11V19ZM14.391 22H11V25.016H14.341C17.396 25.016 17.209 22 14.391 22Z" fill="white"/>
</g>
<defs>
<clipPath id="clip0_189_39493">
<rect width="40" height="40" rx="20" fill="white"/>
</clipPath>
</defs>
</svg>
