<svg class="menu_icon" xmlns="http://www.w3.org/2000/svg" viewBox="0 0 100 100" fill="none">
    <path d="M50,94.53l-1.19-2c0-.38-17-29.9-21.68-38.57-2.76-5.53-6.31-14.58-6.31-22A29.37,29.37,0,0,1,50,2.77c16.14,0,29.55,13.44,29.55,29.14,0,7.1-3.17,16.52-6.31,22.05-5.53,9.48-21.67,38.19-22,38.57Zm0-89h0A26.38,26.38,0,0,0,23.57,31.91c0,6.28,3.13,15,5.9,20.86C33.4,59.86,46,82.29,50,89c4-6.72,16.14-28.33,20.88-36.62,2.77-5.09,5.94-14.2,5.94-20.48A26.5,26.5,0,0,0,50,5.53Zm0,39.76h0A13.19,13.19,0,0,1,37,31.91c0-7.1,5.9-13.38,13-13.38A13.52,13.52,0,0,1,63.36,31.91,13.28,13.28,0,0,1,50,45.29Zm0-24h0A10.62,10.62,0,1,0,60.59,31.91,10.49,10.49,0,0,0,50,21.3Zm0,77.57h0l-2.77-5.53s-17-29.9-21.67-38.57c-3.17-5.52-6.71-15-6.71-22.86A31.46,31.46,0,0,1,50,.82C67.31.82,81.51,15,81.51,31.91c0,7.47-3.55,17.34-6.72,22.86-5.5,9.43-21.67,38.57-21.67,38.57ZM50,7.54h0A24.51,24.51,0,0,0,25.54,31.91c0,6.28,2.77,14.2,5.91,19.72C35,58.29,45.24,76.45,50,85.05c5.12-8.6,15-26.38,18.91-33.42,2.76-4.77,5.9-13.81,5.9-19.72a26.11,26.11,0,0,0-7.1-17.28A26.4,26.4,0,0,0,50,7.54ZM50,47.3h0A15.07,15.07,0,0,1,35,31.91c0-8.23,6.69-15.33,15-15.33A15.38,15.38,0,0,1,65.34,31.91,15.15,15.15,0,0,1,50,47.3Zm0-24.06h0a8.67,8.67,0,1,0,0,17.34,8.48,8.48,0,0,0,8.67-8.67A8.51,8.51,0,0,0,50,23.24Zm0,72.87h0L48.41,93C45.64,87.82,31,62.25,26.7,54.4c-3.13-6-6.68-15-6.68-22.49a30,30,0,0,1,59.92,0c0,7.47-3.14,17-6.31,22.49C68.1,63.82,51.93,92.53,51.93,93ZM50,3.58h0A28.27,28.27,0,0,0,21.59,31.91c0,7.47,3.14,16.14,6.31,21.67,4.34,7.85,18.94,33.48,21.67,38.57L50,93.34l.78-1.19c0-.38,16.18-29.15,21.7-38.57,3.15-5.15,6.29-14.57,6.29-21.67,0-15.7-13-28.33-28.77-28.33Zm0,87h0l-.41-1.2C45.64,82.73,33,60.24,29.06,52.77c-3.14-5.47-6.28-14.14-6.28-20.86A27.22,27.22,0,0,1,50,4.77,25.81,25.81,0,0,1,69.29,13a24.9,24.9,0,0,1,8.26,18.91c0,6.72-3.14,15.77-6.28,20.86-4.33,8.29-17,30.33-20.51,36.61ZM50,6.35h0A25.56,25.56,0,0,0,24.35,31.91c0,6.28,2.76,15,5.9,20.48C33.8,59.48,45.64,80,50,87.82c4.33-7.48,15.77-28,20.1-35.43C73.22,47.3,76,38.19,76,31.91a26,26,0,0,0-7.47-18.09A25.2,25.2,0,0,0,50,6.35Zm0,39.76h0a14,14,0,1,1,14.2-14.2A14.07,14.07,0,0,1,50,46.11Zm0-26.76h0A13,13,0,0,0,37.35,31.91,12.7,12.7,0,0,0,50,44.53,12.46,12.46,0,0,0,62.6,31.91,12.68,12.68,0,0,0,50,19.35Zm0,24h0a11.4,11.4,0,0,1-11-11.43,11.24,11.24,0,0,1,22.48,0A11.47,11.47,0,0,1,50,43.34Zm0-21.29h0a9.86,9.86,0,1,0,0,19.72,10.08,10.08,0,0,0,10.24-9.86A10.33,10.33,0,0,0,50,22.05Zm0,78h0L46.4,93.72C42.5,86.62,29.06,63,24.73,55.15,21.59,49.25,18,39.82,18,31.91,18,14.63,32.64,0,50,0,67.69,0,82.3,14.63,82.3,31.91c0,7.47-3.55,17.71-6.69,23.24-5.53,9.42-21.67,38.57-22.08,38.57ZM50,8.29h0A23.7,23.7,0,0,0,26.33,31.91c0,5.91,2.73,14.2,5.5,19.29,3.54,6.34,13,22.86,18.15,32.72,5.53-9.49,14.57-26,18.53-32.72C71.27,46.48,74,37.82,74,31.91A23.6,23.6,0,0,0,50,8.29Zm0,39.76h0A15.92,15.92,0,1,1,66.12,31.91,15.9,15.9,0,0,1,50,48.05Zm0-24h0a7.88,7.88,0,1,0,0,15.76c4.33,0,8.29-3.57,8.29-7.91s-4-7.85-8.29-7.85Z" fill="#131313"/>
</svg>