<svg class="menu_icon" xmlns="http://www.w3.org/2000/svg" viewBox="0 0 100 100" fill="none">
    <path d="M50,95A7.24,7.24,0,0,1,45,92.93L8.62,56.6A29.21,29.21,0,0,1,49.93,15.3l.11.11.11-.12A29,29,0,0,1,70.8,6.75h0A29.2,29.2,0,0,1,91.46,56.6L55.13,92.93A7.24,7.24,0,0,1,50,95ZM29.27,12.56A23.39,23.39,0,0,0,12.73,52.5L49.05,88.82a1.45,1.45,0,0,0,2,0L87.35,52.5A23.39,23.39,0,0,0,70.81,12.56h0A23.23,23.23,0,0,0,54.26,19.4l-2.17,2.17a2.89,2.89,0,0,1-4.1,0L45.82,19.4A23.32,23.32,0,0,0,29.27,12.56Z" fill="#131313"/>
</svg>