<svg width="40" height="40" viewBox="0 0 40 40" fill="none" xmlns="http://www.w3.org/2000/svg">
<g clip-path="url(#clip0_189_39505)">
<path d="M40 0H0V40H40V0Z" fill="#131313"/>
<path fill-rule="evenodd" clip-rule="evenodd" d="M31.3751 14.7874C31.361 13.9341 31.2047 13.0892 30.9126 12.2874C30.692 11.7098 30.3511 11.1857 29.9126 10.7499C29.479 10.3086 28.9543 9.96731 28.3751 9.74985C27.5742 9.4559 26.7282 9.30362 25.8751 9.29985C24.4751 9.29985 24.0501 9.22485 20.4876 9.22485H19.2376C16.7376 9.22485 16.2751 9.22485 15.0376 9.29985C14.1837 9.30737 13.3377 9.46389 12.5376 9.76235C11.9577 9.97835 11.4327 10.3198 11.0001 10.7624C10.5584 11.1932 10.2207 11.719 10.0126 12.2999C9.71263 13.0995 9.55607 13.9458 9.5501 14.7999C9.5501 16.1999 9.4751 16.6249 9.4751 20.1874C9.4751 23.7499 9.4751 24.1749 9.5501 25.5874C9.55093 26.4419 9.70766 27.2891 10.0126 28.0874C10.2331 28.6547 10.5692 29.1699 10.9996 29.6003C11.43 30.0307 11.9453 30.3668 12.5126 30.5874C13.3127 30.8858 14.1587 31.0423 15.0126 31.0499C16.4251 31.1124 16.8501 31.1249 20.4126 31.1249C23.9751 31.1249 24.4001 31.1249 25.8001 31.0499C26.6541 31.0439 27.5004 30.8873 28.3001 30.5874C28.884 30.3793 29.4107 30.0367 29.8376 29.5874C30.2825 29.1617 30.6245 28.6401 30.8376 28.0624C31.1297 27.2605 31.286 26.4156 31.3001 25.5624C31.3001 24.1499 31.3751 23.7249 31.3751 20.1624C31.3751 16.5999 31.4376 16.2499 31.3751 14.7874ZM20.5126 27.0374C19.1543 27.0398 17.8257 26.6391 16.6953 25.886C15.5649 25.1329 14.6833 24.0613 14.1624 22.8068C13.6414 21.5523 13.5045 20.1715 13.7689 18.8391C14.0333 17.5068 14.6871 16.2828 15.6476 15.3223C16.6081 14.3619 17.832 13.708 19.1644 13.4436C20.4967 13.1792 21.8776 13.3162 23.132 13.8371C24.3865 14.3581 25.4582 15.2396 26.2113 16.3701C26.9644 17.5005 27.3651 18.829 27.3626 20.1874C27.3626 22.0041 26.6409 23.7464 25.3563 25.031C24.0717 26.3157 22.3293 27.0374 20.5126 27.0374ZM27.6376 14.6624C27.3211 14.6624 27.0118 14.5685 26.7487 14.3927C26.4856 14.2169 26.2805 13.967 26.1594 13.6746C26.0383 13.3823 26.0066 13.0606 26.0683 12.7502C26.1301 12.4398 26.2825 12.1547 26.5062 11.931C26.73 11.7072 27.0151 11.5548 27.3255 11.4931C27.6358 11.4314 27.9575 11.463 28.2499 11.5841C28.5423 11.7052 28.7921 11.9103 28.9679 12.1734C29.1438 12.4366 29.2376 12.7459 29.2376 13.0624C29.2376 13.4867 29.069 13.8937 28.769 14.1937C28.4689 14.4938 28.0619 14.6624 27.6376 14.6624V14.6624Z" fill="white"/>
<path fill-rule="evenodd" clip-rule="evenodd" d="M20.5126 15.7375C19.6341 15.7449 18.7775 16.0121 18.0506 16.5056C17.3238 16.999 16.7592 17.6966 16.4282 18.5103C16.0971 19.3241 16.0143 20.2176 16.1902 21.0784C16.3661 21.9391 16.7929 22.7285 17.4167 23.3471C18.0405 23.9657 18.8335 24.3858 19.6956 24.5545C20.5578 24.7232 21.4506 24.6329 22.2616 24.295C23.0725 23.9571 23.7653 23.3868 24.2527 22.6558C24.74 21.9248 25.0001 21.066 25.0001 20.1875C25.0001 19.5999 24.8838 19.0182 24.6578 18.4758C24.4318 17.9335 24.1007 17.4412 23.6835 17.0275C23.2663 16.6138 22.7713 16.2868 22.2271 16.0654C21.6828 15.844 21.1001 15.7325 20.5126 15.7375V15.7375Z" fill="white"/>
</g>
<defs>
<clipPath id="clip0_189_39505">
<rect width="40" height="40" rx="20" fill="white"/>
</clipPath>
</defs>
</svg>
