<svg width="40" height="40" viewBox="0 0 40 40" fill="none" xmlns="http://www.w3.org/2000/svg">
<g clip-path="url(#clip0_189_39499)">
<path d="M40 0H0V40H40V0Z" fill="#131313"/>
<path d="M31.125 10.8126L27.375 29.1126C27.1 30.3626 26.375 30.7251 25.3375 30.1251L19.7125 25.7626L17 28.5126C16.8695 28.6916 16.6983 28.8371 16.5005 28.9371C16.3028 29.037 16.0841 29.0886 15.8625 29.0876L16.275 23.0626L26.7 13.1626C27.15 12.7376 26.6 12.5001 26 12.9251L13.15 21.4626L7.60003 19.6376C6.35003 19.2376 6.35003 18.3876 7.85003 17.7626L29.5625 9.01262C30.575 8.61262 31.45 9.23762 31.125 10.8501V10.8126Z" fill="white"/>
</g>
<defs>
<clipPath id="clip0_189_39499">
<rect width="40" height="40" rx="20" fill="white"/>
</clipPath>
</defs>
</svg>
