<svg width="40" height="40" viewBox="0 0 40 40" fill="none" xmlns="http://www.w3.org/2000/svg">
<g clip-path="url(#clip0_189_39512)">
<path d="M0 20C0 31.0457 8.95431 40 20 40C31.0457 40 40 31.0457 40 20C40 8.95431 31.0457 0 20 0C8.95431 0 0 8.95431 0 20Z" fill="#131313"/>
<path d="M29.45 24.1875C28.85 23.5125 27.9625 22.7375 27.7 22.375C27.4375 22.0125 27.425 21.675 27.7 21.2375C27.7 21.2375 30.775 16.85 31.0875 15.3625C31.2625 14.825 31.0875 14.425 30.325 14.425H27.825C27.584 14.4057 27.3432 14.4646 27.1383 14.593C26.9334 14.7213 26.7754 14.9122 26.6875 15.1374C25.8892 17.0152 24.8287 18.7701 23.5375 20.35C22.9625 20.9375 22.6875 21.1375 22.3625 21.1375C22.0375 21.1375 21.9625 20.9375 21.9625 20.4V15.3999C21.9625 14.7374 21.775 14.45 21.2375 14.45H17.225C17.1431 14.4448 17.061 14.4565 16.9838 14.4844C16.9067 14.5122 16.836 14.5556 16.7763 14.6119C16.7165 14.6681 16.6689 14.736 16.6365 14.8113C16.604 14.8867 16.5873 14.9679 16.5875 15.05C16.5875 15.6625 17.5125 15.8125 17.6 17.55V21.3C17.6 22.1 17.4625 22.2625 17.125 22.2625C16.275 22.2625 14.175 19.1125 12.9125 15.4499C12.6625 14.7499 12.425 14.4624 11.775 14.4624H9.27498C8.53748 14.4624 8.41248 14.8124 8.41248 15.1874C8.41248 15.8499 9.27498 19.2 12.4375 23.6375C13.2731 24.9745 14.4131 26.0949 15.7643 26.9074C17.1155 27.7199 18.6397 28.2013 20.2125 28.3125C21.8375 28.3125 22.025 27.925 22.025 27.3125V25C22.025 24.2625 22.1875 24.1249 22.6875 24.1249C23.1875 24.1249 23.725 24.3374 25.2625 25.7874C26.9625 27.5125 27.25 28.2875 28.2125 28.2875H30.7125C31.45 28.2875 31.8 27.925 31.6125 27.2C31.0571 26.0868 30.327 25.0697 29.45 24.1875V24.1875Z" fill="white"/>
</g>
<defs>
<clipPath id="clip0_189_39512">
<rect width="40" height="40" fill="white"/>
</clipPath>
</defs>
</svg>
